<svg aria-hidden="true" style="position: absolute; width: 0; height: 0; overflow: hidden;"
  version="1.1"
  xmlns="http://www.w3.org/2000/svg" xmlns:xlink="http://www.w3.org/1999/xlink">
  <defs>
    <symbol width="17" height="17" viewBox="0 0 17 17" fill="none"
      xmlns="http://www.w3.org/2000/svg" id="eye">
      <path
        d="M2.68342 10.6971C2.11681 9.96094 1.8335 9.59288 1.8335 8.49996C1.8335 7.40704 2.11681 7.03898 2.68342 6.30285C3.81481 4.833 5.71224 3.16663 8.50016 3.16663C11.2881 3.16663 13.1855 4.833 14.3169 6.30285C14.8835 7.03898 15.1668 7.40704 15.1668 8.49996C15.1668 9.59288 14.8835 9.96094 14.3169 10.6971C13.1855 12.1669 11.2881 13.8333 8.50016 13.8333C5.71224 13.8333 3.81481 12.1669 2.68342 10.6971Z"
        stroke-width="1.5" />
      <path
        d="M10.5 8.5C10.5 9.60457 9.60457 10.5 8.5 10.5C7.39543 10.5 6.5 9.60457 6.5 8.5C6.5 7.39543 7.39543 6.5 8.5 6.5C9.60457 6.5 10.5 7.39543 10.5 8.5Z"
        stroke-width="1.5" />
    </symbol>

    <symbol width="17" height="17" viewBox="0 0 17 17" fill="none"
      xmlns="http://www.w3.org/2000/svg" id="time">
      <circle cx="8.50016" cy="8.50004" r="6.66667" stroke-width="1.5" />
      <path d="M8.5 5.83337V8.50004L10.1667 10.1667" stroke-width="1.5" stroke-linecap="round"
        stroke-linejoin="round" />
    </symbol>

    <symbol width="20" height="20" viewBox="0 0 20 20" fill="none"
      xmlns="http://www.w3.org/2000/svg" id="user">
      <path
        d="M2.5 16.6667C4.44649 14.6021 7.08918 13.3333 10 13.3333C12.9108 13.3333 15.5535 14.6021 17.5 16.6667M13.75 6.25C13.75 8.32107 12.0711 10 10 10C7.92893 10 6.25 8.32107 6.25 6.25C6.25 4.17893 7.92893 2.5 10 2.5C12.0711 2.5 13.75 4.17893 13.75 6.25Z"
        stroke-width="1.8" stroke-linecap="round" stroke-linejoin="round" />
    </symbol>

    <symbol width="24" height="24" viewBox="0 0 24 24" fill="none"
      xmlns="http://www.w3.org/2000/svg" id="heart">
      <path fill-rule="evenodd" clip-rule="evenodd"
        d="M11.9932 5.13581C9.9938 2.7984 6.65975 2.16964 4.15469 4.31001C1.64964 6.45038 1.29697 10.029 3.2642 12.5604C4.89982 14.6651 9.84977 19.1041 11.4721 20.5408C11.6536 20.7016 11.7444 20.7819 11.8502 20.8135C11.9426 20.8411 12.0437 20.8411 12.1361 20.8135C12.2419 20.7819 12.3327 20.7016 12.5142 20.5408C14.1365 19.1041 19.0865 14.6651 20.7221 12.5604C22.6893 10.029 22.3797 6.42787 19.8316 4.31001C17.2835 2.19216 13.9925 2.7984 11.9932 5.13581Z"
        stroke-width="2" stroke-linecap="round" stroke-linejoin="round" />
    </symbol>

    <symbol width="20" height="20" viewBox="0 0 20 20" fill="none"
      xmlns="http://www.w3.org/2000/svg" id="share">
      <path
        d="M5.83333 9.16667C5.05836 9.16667 4.67087 9.16667 4.35295 9.25185C3.49022 9.48302 2.81635 10.1569 2.58519 11.0196C2.5 11.3375 2.5 11.725 2.5 12.5V13.5C2.5 14.9001 2.5 15.6002 2.77248 16.135C3.01217 16.6054 3.39462 16.9878 3.86502 17.2275C4.3998 17.5 5.09987 17.5 6.5 17.5H13.5C14.9001 17.5 15.6002 17.5 16.135 17.2275C16.6054 16.9878 16.9878 16.6054 17.2275 16.135C17.5 15.6002 17.5 14.9001 17.5 13.5V12.5C17.5 11.725 17.5 11.3375 17.4148 11.0196C17.1836 10.1569 16.5098 9.48302 15.647 9.25185C15.3291 9.16667 14.9416 9.16667 14.1667 9.16667M13.3333 5.83333L10 2.5M10 2.5L6.66667 5.83333M10 2.5V12.5"
        stroke-width="1.8" stroke-linecap="round" stroke-linejoin="round" />
    </symbol>

    <symbol width="25" height="24" viewBox="0 0 25 24" fill="none"
      xmlns="http://www.w3.org/2000/svg" id="search">
      <path
        d="M21.5 21L18.0001 17.5M20.5 11.5C20.5 16.1944 16.6944 20 12 20C7.30558 20 3.5 16.1944 3.5 11.5C3.5 6.80558 7.30558 3 12 3C16.6944 3 20.5 6.80558 20.5 11.5Z"
        stroke-width="2" stroke-linecap="round" stroke-linejoin="round" />
    </symbol>
    <symbol width="19" height="15" viewBox="0 0 19 15" xmlns="http://www.w3.org/2000/svg"
      id="slider_arrow">
      <path
        d="M15.5638 6.74997L1.62427 6.74997C1.42536 6.74997 1.23459 6.82899 1.09394 6.96964C0.953285 7.11029 0.874268 7.30106 0.874268 7.49997C0.874268 7.69888 0.953285 7.88965 1.09394 8.0303C1.23459 8.17095 1.42536 8.24997 1.62427 8.24997L15.5638 8.24997L10.0933 13.719C9.95244 13.8598 9.87332 14.0508 9.87332 14.25C9.87332 14.4491 9.95244 14.6401 10.0933 14.781C10.2341 14.9218 10.4251 15.0009 10.6243 15.0009C10.8234 15.0009 11.0144 14.9218 11.1553 14.781L17.9053 8.03097C17.9751 7.9613 18.0305 7.87854 18.0683 7.78742C18.1061 7.6963 18.1256 7.59862 18.1256 7.49997C18.1256 7.40132 18.1061 7.30364 18.0683 7.21252C18.0305 7.1214 17.9751 7.03864 17.9053 6.96897L11.1553 0.218971C11.0144 0.0781407 10.8234 -0.000976562 10.6243 -0.000976562C10.4251 -0.000976562 10.2341 0.0781407 10.0933 0.218971C9.95244 0.359801 9.87332 0.550807 9.87332 0.749971C9.87332 0.949134 9.95244 1.14014 10.0933 1.28097L15.5638 6.74997Z"
      />
    </symbol>


  </defs>
</svg>