<svg aria-hidden="true" style="position: absolute; width: 0; height: 0; overflow: hidden;"
  version="1.1"
  xmlns="http://www.w3.org/2000/svg" xmlns:xlink="http://www.w3.org/1999/xlink">
  <defs>
    <symbol width="168" height="21" viewBox="0 0 168 21" fill="none"
      xmlns="http://www.w3.org/2000/svg" id="logo">
      <path
        d="M0.96 0.399999H6.112L11.544 10.34L16.92 0.399999H21.96V20H16.92V8.772L12.86 16.22H10.06L6 8.772V20H0.96V0.399999ZM25.8702 0.399999H40.1502V4.264H30.9102V8.1H39.3102V11.74H30.9102V16.136H40.1502V20H25.8702V0.399999ZM43.3702 0.399999H50.7902C52.2648 0.399999 53.5808 0.605332 54.7382 1.016C55.8955 1.408 56.8755 1.996 57.6782 2.78C58.4808 3.564 59.0968 4.544 59.5262 5.72C59.9555 6.896 60.1702 8.24933 60.1702 9.78V10.34C60.1702 11.908 59.9462 13.2987 59.4982 14.512C59.0688 15.7067 58.4342 16.7147 57.5942 17.536C56.7728 18.3387 55.7648 18.9547 54.5702 19.384C53.3755 19.7947 52.0222 20 50.5102 20H43.3702V0.399999ZM50.2302 15.856C50.8648 15.856 51.4622 15.7627 52.0222 15.576C52.6008 15.3707 53.1048 15.0533 53.5342 14.624C53.9822 14.1947 54.3275 13.6253 54.5702 12.916C54.8315 12.2067 54.9622 11.348 54.9622 10.34V9.78C54.9622 8.828 54.8408 8.02533 54.5982 7.372C54.3742 6.7 54.0568 6.15867 53.6462 5.748C53.2542 5.31867 52.7875 5.01067 52.2462 4.824C51.7048 4.63733 51.1262 4.544 50.5102 4.544H48.4102V15.856H50.2302ZM63.6658 0.399999H68.7058V20H63.6658V0.399999ZM83.8774 16.248H77.3254L75.9814 20H71.2214L78.3614 0.399999H83.4014L90.5414 20H85.2214L83.8774 16.248ZM78.7534 12.384H82.4494L80.6014 6.56L78.7534 12.384Z"
        fill="#D92E15" />
      <path
        d="M92.7803 0.399999H102.16C104.456 0.399999 106.127 0.857332 107.172 1.772C108.218 2.668 108.74 3.956 108.74 5.636C108.74 6.644 108.479 7.512 107.956 8.24C107.434 8.94933 106.724 9.46267 105.828 9.78C106.986 10.0413 107.9 10.5733 108.572 11.376C109.244 12.16 109.58 13.1867 109.58 14.456C109.58 16.1733 109.011 17.5267 107.872 18.516C106.752 19.5053 104.942 20 102.44 20H92.7803V0.399999ZM101.32 16.136C102.534 16.136 103.374 15.9587 103.84 15.604C104.307 15.2307 104.54 14.6613 104.54 13.896C104.54 13.1307 104.298 12.5613 103.812 12.188C103.346 11.8147 102.496 11.628 101.264 11.628H97.8203V16.136H101.32ZM100.928 8.212C102.011 8.212 102.739 8.044 103.112 7.708C103.504 7.35333 103.7 6.85867 103.7 6.224C103.7 5.57067 103.504 5.08533 103.112 4.768C102.739 4.432 102.02 4.264 100.956 4.264H97.8203V8.212H100.928ZM112.523 0.399999H117.562V15.856H125.963V20H112.523V0.399999ZM137.038 20.364C135.75 20.364 134.527 20.1773 133.37 19.804C132.212 19.4307 131.195 18.8427 130.318 18.04C129.459 17.2187 128.778 16.1827 128.274 14.932C127.77 13.6627 127.518 12.132 127.518 10.34V9.78C127.518 8.06267 127.77 6.588 128.274 5.356C128.778 4.124 129.459 3.116 130.318 2.332C131.195 1.548 132.212 0.969332 133.37 0.595999C134.527 0.222665 135.75 0.0359983 137.038 0.0359983C138.326 0.0359983 139.548 0.222665 140.706 0.595999C141.863 0.969332 142.871 1.548 143.73 2.332C144.607 3.116 145.298 4.124 145.802 5.356C146.306 6.588 146.558 8.06267 146.558 9.78V10.34C146.558 12.132 146.306 13.6627 145.802 14.932C145.298 16.1827 144.607 17.2187 143.73 18.04C142.871 18.8427 141.863 19.4307 140.706 19.804C139.548 20.1773 138.326 20.364 137.038 20.364ZM137.038 16.164C137.598 16.164 138.139 16.08 138.662 15.912C139.184 15.7253 139.642 15.4173 140.034 14.988C140.426 14.54 140.743 13.9427 140.986 13.196C141.228 12.4493 141.35 11.4973 141.35 10.34V9.78C141.35 8.69733 141.228 7.80133 140.986 7.092C140.743 6.364 140.426 5.79467 140.034 5.384C139.642 4.95467 139.184 4.656 138.662 4.488C138.139 4.32 137.598 4.236 137.038 4.236C136.478 4.236 135.936 4.32 135.414 4.488C134.891 4.656 134.434 4.95467 134.042 5.384C133.65 5.79467 133.332 6.364 133.09 7.092C132.847 7.80133 132.726 8.69733 132.726 9.78V10.34C132.726 11.4973 132.847 12.4493 133.09 13.196C133.332 13.9427 133.65 14.54 134.042 14.988C134.434 15.4173 134.891 15.7253 135.414 15.912C135.936 16.08 136.478 16.164 137.038 16.164ZM158.445 20.364C157.101 20.364 155.859 20.1773 154.721 19.804C153.582 19.4307 152.593 18.8427 151.753 18.04C150.913 17.2187 150.25 16.1733 149.765 14.904C149.298 13.6347 149.065 12.1133 149.065 10.34V9.78C149.065 8.08133 149.307 6.62533 149.793 5.412C150.278 4.18 150.941 3.172 151.781 2.388C152.621 1.58533 153.601 0.997332 154.721 0.623999C155.841 0.231999 157.035 0.0359983 158.305 0.0359983C159.425 0.0359983 160.47 0.166665 161.441 0.427998C162.411 0.689332 163.27 1.1 164.017 1.66C164.763 2.20133 165.379 2.90133 165.865 3.76C166.369 4.61867 166.695 5.64533 166.845 6.84H161.637C161.506 6.31733 161.319 5.888 161.077 5.552C160.834 5.216 160.563 4.95467 160.265 4.768C159.966 4.56267 159.649 4.42267 159.313 4.348C158.977 4.27333 158.641 4.236 158.305 4.236C157.707 4.236 157.157 4.32933 156.653 4.516C156.167 4.70267 155.747 5.01067 155.393 5.44C155.038 5.86933 154.758 6.43867 154.553 7.148C154.366 7.85733 154.273 8.73467 154.273 9.78V10.34C154.273 11.3853 154.375 12.2813 154.581 13.028C154.786 13.756 155.066 14.3533 155.421 14.82C155.794 15.2867 156.233 15.632 156.737 15.856C157.259 16.0613 157.829 16.164 158.445 16.164C158.949 16.164 159.443 16.0987 159.929 15.968C160.433 15.8373 160.871 15.632 161.245 15.352C161.637 15.072 161.954 14.7267 162.197 14.316C162.439 13.8867 162.57 13.3733 162.589 12.776H159.005V9.584H167.265V10.9C167.265 12.58 167.041 14.0173 166.593 15.212C166.163 16.4067 165.557 17.3867 164.773 18.152C163.989 18.9173 163.055 19.4773 161.973 19.832C160.909 20.1867 159.733 20.364 158.445 20.364Z"
        fill="#0B2B5E" />
    </symbol>
  </defs>
</svg>